<svg xmlns="http://www.w3.org/2000/svg" viewBox="0 0 55.473 55.473"><defs><style>.a{fill:#00a1b8;}.b{fill:#fff;}</style></defs><circle class="a" cx="27.737" cy="27.737" r="27.737"/><g transform="translate(10.841 12.229)"><path class="b" d="M36.211,31.988a2.627,2.627,0,0,0-1.891-.883,1.88,1.88,0,0,0-1.387.63c-.63.756-2.774,2.522-4.034,2.017a67.176,67.176,0,0,1-5.673-5.3c-2.4-2.4-5.043-5.043-5.3-5.673-.378-1.261,1.261-3.4,2.017-4.034a1.831,1.831,0,0,0,.63-1.513,2.627,2.627,0,0,0-.883-1.891l-4.16-4.16a2.444,2.444,0,0,0-3.4-.378A9.452,9.452,0,0,0,8.6,17.994c-.126,7.565,8.321,15.381,8.825,15.885l.252.252h0c.378.378,8.069,8.825,15.759,8.825h.126a9.26,9.26,0,0,0,7.186-3.53,2.578,2.578,0,0,0-.378-3.4ZM39.867,38.8a8.753,8.753,0,0,1-6.3,3.152h-.126c-6.934,0-14.373-7.817-14.877-8.447l-.126-.126-.252-.252h0c-.126-.126-8.573-7.817-8.447-15a8.4,8.4,0,0,1,3.026-6.3,1.519,1.519,0,0,1,1.891.252l4.16,4.16a1.3,1.3,0,0,1,.5,1.009.965.965,0,0,1-.252.63c-.378.252-3.026,3.026-2.269,5.3.378,1.009,4.413,4.917,5.547,6.052,1.135,1.261,5.169,5.3,6.178,5.547,2.269.756,4.917-2.017,5.3-2.4a.965.965,0,0,1,.63-.252,1.3,1.3,0,0,1,1.009.5l4.16,4.16A1.548,1.548,0,0,1,39.867,38.8Z" transform="translate(-8.599 -9.547)"/><path class="b" d="M21.578,9.7a.378.378,0,0,0,0,.756A16.573,16.573,0,0,1,38.094,26.972a.378.378,0,1,0,.756,0A17.139,17.139,0,0,0,21.578,9.7Z" transform="translate(-5.313 -9.7)"/><path class="b" d="M32.321,25.9a.4.4,0,0,0,.378.378.568.568,0,0,0,.378-.378,11.568,11.568,0,0,0-11.6-11.6.378.378,0,0,0,0,.756A11.007,11.007,0,0,1,32.321,25.9Z" transform="translate(-5.339 -8.501)"/></g></svg>