<svg xmlns="http://www.w3.org/2000/svg" viewBox="0 0 55.473 55.473"><defs><style>.a{fill:#00a1b8;}.b{fill:#fff;}</style></defs><circle class="a" cx="27.737" cy="27.737" r="27.737"/><path class="b" d="M24.842,6.4A13.774,13.774,0,0,0,11.1,20.142c0,7.186,12.229,24.963,12.734,25.719a1.147,1.147,0,0,0,1.009.5,1.556,1.556,0,0,0,1.009-.5c.5-.756,12.734-18.533,12.734-25.719A13.774,13.774,0,0,0,24.842,6.4Zm0,36.688C20.934,37.288,13.5,25.059,13.5,20.142a11.347,11.347,0,1,1,22.694,0C36.189,25.059,28.751,37.288,24.842,43.088Z" transform="translate(2.894 1.669)"/><path class="b" d="M22.678,12.4a3.278,3.278,0,1,0,3.278,3.278A3.18,3.18,0,0,0,22.678,12.4Z" transform="translate(5.059 3.233)"/></svg>