<svg xmlns="http://www.w3.org/2000/svg" viewBox="0 0 55.473 55.473"><defs><style>.a{fill:#00a1b8;}.b{fill:#fff;}</style></defs><circle class="a" cx="27.737" cy="27.737" r="27.737"/><path class="b" d="M23.521,21.5a5.421,5.421,0,1,0,5.421,5.421A5.381,5.381,0,0,0,23.521,21.5Zm0,9.96a4.539,4.539,0,1,1,4.539-4.539A4.52,4.52,0,0,1,23.521,31.46Z" transform="translate(4.72 5.606)"/><path class="b" d="M21,24.5a.542.542,0,0,0-.5.5v2.269a.5.5,0,1,0,1.009,0V25A.542.542,0,0,0,21,24.5Z" transform="translate(5.345 6.388)"/><path class="b" d="M23.9,24.5a.542.542,0,0,0-.5.5v2.269a.5.5,0,1,0,1.009,0V25A.542.542,0,0,0,23.9,24.5Z" transform="translate(6.102 6.388)"/><path class="b" d="M36.493,20.673l1.891-5.8a.529.529,0,0,0-.378-.756c-2.017-.63-6.052-1.009-7.817,2.269-.5-.126-.883-.252-1.387-.378a3.782,3.782,0,1,0-6.052-3.026,3.434,3.434,0,0,0,1.135,2.648,17.666,17.666,0,0,0-3.53.756c-1.765-3.278-5.8-2.9-7.817-2.269a.562.562,0,0,0-.378.756l1.891,5.8A13.993,13.993,0,0,0,10.9,29.5a13.443,13.443,0,0,0,3.53,9.077v6.052a.6.6,0,0,0,.63.63h3.278a.693.693,0,0,0,.63-.378l1.009-2.522a14.322,14.322,0,0,0,10.716,0L31.7,44.879a.693.693,0,0,0,.63.378h3.278a.6.6,0,0,0,.63-.63V38.576a13.682,13.682,0,0,0,3.53-9.077A15.2,15.2,0,0,0,36.493,20.673ZM26.659,10.461a2.522,2.522,0,1,1-2.522,2.522A2.529,2.529,0,0,1,26.659,10.461Zm8.447,27.484a.463.463,0,0,0-.126.378V44H32.837l-1.009-2.648q0-.189-.378-.378h-.5a13.518,13.518,0,0,1-10.842,0,.383.383,0,0,0-.5,0q-.189,0-.378.378L18.212,44H16.069V38.323a.463.463,0,0,0-.126-.378A11.556,11.556,0,0,1,12.287,29.5,12.332,12.332,0,0,1,15.439,21.3a.554.554,0,0,0,.126-.63l-1.891-5.547c1.387-.378,4.665-.756,5.926,2.269.126.252.5.5.756.378a13.257,13.257,0,0,1,9.834,0,.562.562,0,0,0,.756-.378c1.261-3.026,4.539-2.648,5.926-2.269L34.98,20.673c-.126.252,0,.378.126.63A12.332,12.332,0,0,1,38.258,29.5,11.585,11.585,0,0,1,35.106,37.945Z" transform="translate(2.842 2.399)"/><path class="b" d="M19.522,10.143A2.522,2.522,0,1,0,17,7.622,2.529,2.529,0,0,0,19.522,10.143Zm0-3.908A1.261,1.261,0,1,1,18.261,7.5,1.356,1.356,0,0,1,19.522,6.235Z" transform="translate(4.433 1.33)"/></svg>