<svg xmlns="http://www.w3.org/2000/svg" viewBox="0 0 55.473 55.473"><defs><style>.a{fill:#00a1b8;}.b{fill:#fff;}</style></defs><circle class="a" cx="27.737" cy="27.737" r="27.737"/><path class="b" d="M43.466,48.252a16.119,16.119,0,0,0-8.825-11.221h0c-.378-.126-.756-.378-1.135-.5a13.382,13.382,0,0,0,2.522-2.143h4.539a1.27,1.27,0,0,0,.378-.126l4.287-4.287a6.053,6.053,0,0,0,0-12.1,18.469,18.469,0,0,0-35.805.126,6.052,6.052,0,0,0,.126,12.1.6.6,0,0,0,.63-.63v-7.06a17.146,17.146,0,1,1,34.292,0v6.556l-4.287,4.287H36.91A9.069,9.069,0,0,0,38.423,30.6a.123.123,0,0,0,.126-.126A17.759,17.759,0,0,0,41.2,18.5a3.78,3.78,0,0,0-2.269-3.026c0-2.4-2.017-4.665-5.3-6.052C28.589,7.4,21.277,7.656,16.738,12.195,10.812,18.12,12.577,24.55,15.225,30.6l.126.126a12.981,12.981,0,0,0,4.917,5.8,5.269,5.269,0,0,0-1.261.5h0C13.46,39.553,11.191,44.47,10.182,48l1.387,1.261c.756-3.152,2.522-7.691,7.06-10.212v.63c0,.378.126.63.126,1.009a1.137,1.137,0,0,0,.126.63c0,.378.126.63.126,1.009,0,.252.126.5.126.756.126.378.126.756.252,1.135,0,.252.126.5.126.756.126.378.126.756.252,1.135.126.252.126.5.252.756.126.378.252.756.378,1.261.126.252.126.5.252.756a13.08,13.08,0,0,0,.5,1.261c.126.252.126.5.252.63.252.63.63,1.261.883,1.891h0c0,.126.126.126.126.252l.126.126h.883c.126,0,.126-.126.252-.126a.39.39,0,0,0,.126-.252h0l2.4-8.069H27.2l2.4,8.069h0c0,.126.126.252.252.378H30.1a.463.463,0,0,0,.378.126h.5c.126-.126.252-.126.252-.252h0a12.724,12.724,0,0,0,.883-1.891c.126-.252.126-.5.252-.63.126-.378.378-.883.5-1.261.126-.252.126-.5.252-.756.126-.378.252-.756.378-1.261.126-.252.126-.5.252-.756a3.681,3.681,0,0,0,.252-1.135c0-.252.126-.5.126-.756.126-.378.126-.756.252-1.135,0-.252.126-.5.126-.756a3.49,3.49,0,0,0,.126-1.135,1.137,1.137,0,0,1,.126-.63c0-.378.126-.756.126-1.135v-.5c4.539,2.522,6.3,7.06,7.06,10.212M8.921,28.837a4.688,4.688,0,0,1-4.16-4.791,4.887,4.887,0,0,1,4.16-4.791Zm6.3-2.648c-1.639-4.791-1.387-8.825,2.648-12.86S28.589,9.043,33,10.934c2.648,1.135,4.287,2.774,4.287,4.539v.378a.945.945,0,0,0,.126.63c.126.126.378.252.5.378.63.126,1.387.378,1.639,1.891a15.959,15.959,0,0,1-1.135,8.321c-.252-2.648-.883-6.556-2.269-8.951a.762.762,0,0,0-.756-.378.463.463,0,0,0-.378.126c-3.026,1.639-8.951,1.639-12.986,1.639a18.136,18.136,0,0,0-4.539.252C15.981,20.39,15.477,23.416,15.225,26.189Zm11.6,16.894a1.513,1.513,0,1,1,1.513-1.513A1.623,1.623,0,0,1,26.824,43.083Zm6.556-4.413a1.137,1.137,0,0,1-.126.63c0,.252-.126.5-.126.883A1.6,1.6,0,0,1,33,40.94c0,.252-.126.63-.126.883s-.126.5-.126.756a2.967,2.967,0,0,1-.252,1.009c0,.252-.126.5-.126.756-.126.378-.126.756-.252,1.135-.126.252-.126.5-.252.756l-.378,1.135c-.126.252-.126.5-.252.756-.126.378-.378.883-.5,1.261-.126.252-.126.378-.252.63L28.715,43.84a3.337,3.337,0,0,0,1.135-2.4,3.152,3.152,0,1,0-5.169,2.4l-1.765,6.178c-.126-.252-.126-.378-.252-.63-.126-.378-.378-.883-.5-1.261-.126-.252-.126-.5-.252-.756l-.378-1.135c-.126-.252-.126-.63-.252-.883-.126-.378-.126-.756-.252-1.009a2.146,2.146,0,0,1-.126-.883c-.126-.378-.126-.63-.252-1.009,0-.252-.126-.5-.126-.756s-.126-.63-.126-.883-.126-.5-.126-.756-.126-.5-.126-.756a1.137,1.137,0,0,0-.126-.63v-.378a10.649,10.649,0,0,1,2.143-.63,13.1,13.1,0,0,0,4.413.883,10.621,10.621,0,0,0,4.413-.883,10.649,10.649,0,0,1,2.143.63C33.38,38.419,33.38,38.545,33.38,38.671Zm.126-4.16H31.237a.883.883,0,1,1,0-1.765h2.269a.862.862,0,0,1,.883.883C34.515,34.132,34.01,34.51,33.506,34.51ZM35.4,32.619a2.174,2.174,0,0,0-1.891-1.135H31.237a2.143,2.143,0,1,0,0,4.287h.252a11.464,11.464,0,0,1-4.665,1.009,11.063,11.063,0,0,1-10.086-6.808c-.126-4.287.5-8.321,1.387-8.7a29.909,29.909,0,0,1,3.908-.126c4.16,0,9.582.126,13.112-1.513,1.513,3.152,1.765,8.573,1.891,10.086A10.823,10.823,0,0,1,35.4,32.619Zm10.212-3.782V19.255a4.688,4.688,0,0,1,4.16,4.791A4.778,4.778,0,0,1,45.609,28.837Z" transform="translate(0.913 1.043)"/></svg>